<?xml version="1.0" encoding="UTF-8" standalone="no"?>
<svg width="62px" height="62px" viewBox="0 0 62 62" version="1.1" xmlns="http://www.w3.org/2000/svg" xmlns:xlink="http://www.w3.org/1999/xlink">
    <!-- Generator: Sketch 3.6.1 (26313) - http://www.bohemiancoding.com/sketch -->
    <title>Logo Copy 2</title>
    <desc>Created with Sketch.</desc>
    <defs></defs>
    <g id="Welcome" stroke="none" stroke-width="1" fill="none" fill-rule="evenodd">
        <g id="Desktop-HD" transform="translate(-206.000000, -32.000000)">
            <g id="Logo-Copy-2" transform="translate(206.000000, 32.000000)">
                <rect id="Rectangle-2" fill="#4EBA84" x="0" y="0" width="62" height="62"></rect>
                <g id="check-circle-outline-blank" transform="translate(15.000000, 16.000000)" fill="#FFFFFF">
                    <path d="M16,0 C7.2,0 0,7.2 0,16 C0,24.8 7.2,32 16,32 C24.8,32 32,24.8 32,16 C32,7.2 24.8,0 16,0 L16,0 Z M16,28.8 C8.96,28.8 3.2,23.04 3.2,16 C3.2,8.96 8.96,3.2 16,3.2 C23.04,3.2 28.8,8.96 28.8,16 C28.8,23.04 23.04,28.8 16,28.8 L16,28.8 Z" id="Shape"></path>
                </g>
            </g>
        </g>
    </g>
</svg>