<?xml version="1.0" encoding="UTF-8" standalone="no"?>
<svg width="18px" height="19px" viewBox="0 0 18 19" version="1.1" xmlns="http://www.w3.org/2000/svg" xmlns:xlink="http://www.w3.org/1999/xlink">
    <!-- Generator: Sketch 3.6.1 (26313) - http://www.bohemiancoding.com/sketch -->
    <title>Combined Shape</title>
    <desc>Created with Sketch.</desc>
    <defs></defs>
    <g id="Welcome" stroke="none" stroke-width="1" fill="none" fill-rule="evenodd">
        <g id="Desktop-HD-Copy-8" transform="translate(-23.000000, -22.000000)" fill="#FFFFFF">
            <path d="M31.8698288,30.2467398 L24.7730258,23.1499368 C24.3731266,22.7500376 23.7464593,22.7565353 23.355935,23.1470596 C22.9626881,23.5403066 22.9666989,24.1720371 23.3588122,24.5641504 L30.4556152,31.6609534 L23.3588122,38.7577564 C22.9666989,39.1498697 22.9626881,39.7816002 23.355935,40.1748471 C23.7464593,40.5653714 24.3731266,40.5718691 24.7730258,40.1719699 L31.8698288,33.0751669 L38.9666318,40.1719699 C39.366531,40.5718691 39.9931982,40.5653714 40.3837225,40.1748471 C40.7769695,39.7816002 40.7729586,39.1498697 40.3808453,38.7577564 L33.2840423,31.6609534 L40.3808453,24.5641504 C40.7729586,24.1720371 40.7769695,23.5403066 40.3837225,23.1470596 C39.9931982,22.7565353 39.366531,22.7500376 38.9666318,23.1499368 L31.8698288,30.2467398 Z" id="Combined-Shape"></path>
        </g>
    </g>
</svg>